HIERARCHY
ROOT Hips
{
	OFFSET 0.000000 0.000000 0.000000 
	CHANNELS 6 Xposition Yposition Zposition Yrotation Zrotation Xrotation 
	JOINT Lumbar
	{
		OFFSET 0.000000 0.000000 0.000000 
		CHANNELS 3 Zrotation Xrotation Yrotation
		JOINT Neck
		{
			OFFSET 0.000000 0.445665 0.000000 
			CHANNELS 3 Zrotation Xrotation Yrotation
			End Site
			{
				OFFSET 0.000000 0.227535 0.000000 
			}
		}
		JOINT RightShoulder
		{
			OFFSET 0.019635 0.377685 0.194865 
			CHANNELS 3 Zrotation Xrotation Yrotation
			JOINT RightElbow
			{
				OFFSET 0.000000 -0.243375 0.000000 
				CHANNELS 2 Zrotation Yrotation
				JOINT RightWrist
				{
					OFFSET 0.000000 -0.264825 0.000000 
					CHANNELS 2 Zrotation Xrotation
					End Site
					{
						OFFSET 0.006600 -0.176220 0.000990 
					}
				}
			}
		}
		JOINT LeftShoulder
		{
			OFFSET 0.019635 0.377685 -0.194865 
			CHANNELS 3 Zrotation Xrotation Yrotation
			JOINT LeftElbow
			{
				OFFSET 0.000000 -0.243375 0.000000 
				CHANNELS 2 Zrotation Yrotation
				JOINT LeftWrist
				{
					OFFSET 0.000000 -0.264825 0.000000 
					CHANNELS 2 Zrotation Xrotation
					End Site
					{
						OFFSET 0.006600 -0.176220 -0.000990 
					}
				}
			}
		}
	}
	JOINT RightHip
	{
		OFFSET 0.052140 -0.069960 0.075570 
		CHANNELS 3 Zrotation Xrotation Yrotation
		JOINT RightKnee
		{
			OFFSET 0.000000 -0.402270 0.000000 
			CHANNELS 1 Zrotation
			JOINT RightAnkle
			{
				OFFSET 0.000000 -0.404085 0.000000 
				CHANNELS 3 Zrotation Xrotation Yrotation
				End Site
				{
					OFFSET 0.204105 -0.089430 0.008415 
				}
			}
		}
	}
	JOINT LeftHip
	{
		OFFSET 0.052140 -0.069960 -0.075570 
		CHANNELS 3 Zrotation Xrotation Yrotation
		JOINT LeftKnee
		{
			OFFSET 0.000000 -0.402270 0.000000 
			CHANNELS 1 Zrotation
			JOINT LeftAnkle
			{
				OFFSET 0.000000 -0.404085 0.000000 
				CHANNELS 3 Zrotation Xrotation Yrotation
				End Site
				{
					OFFSET 0.204105 -0.089430 -0.008415 
				}
			}
		}
	}
}
MOTION
Frames: 16
Frame Time: 0.02
-0.35165 -0.02149 -1.13377 571.64894 -38.38168 -0.77452 35.50626 0.74039 -2.25375 -20.69606 14.4855 -0.83073 16.82664 -17.96977 28.50557 137.62438 -0.48857 35.54963 -22.95785 -29.0919 14.82003 -3.06336 51.37626 -61.76931 -19.90959 -0.29026 46.59272 6.4559 -12.74734 -26.38823 -8.05302 -2.93239 -2.2299 36.78495 20.54226 -7.68976 -45.40197 -11.61085 -0.6981 0.32478
-0.35974 -0.0219 -1.13442 571.91081 -38.276 -0.63763 35.41019 0.83797 -1.80696 -20.74792 14.37997 -0.83073 17.16088 -18.41579 28.43718 137.62464 -0.6777 34.51746 -22.9976 -29.39891 14.33942 -2.02287 51.3216 -58.0394 -20.69922 -0.90717 45.51552 6.79741 -12.80089 -25.55517 -6.22077 -3.14173 -2.24365 38.56303 20.7297 -8.08969 -48.05507 -12.00399 -0.72565 0.31986
-0.36706 -0.02227 -1.1349 572.08533 -38.12844 -0.50465 35.24544 0.92421 -1.2753 -20.86515 14.30409 -0.83073 17.54544 -18.93149 28.39785 137.62423 -0.59419 33.0511 -22.9798 -29.70069 13.75687 -0.80016 51.3811 -53.49548 -21.63113 -1.66521 44.41525 7.12684 -12.76323 -24.68462 -3.95552 -3.39337 -2.25634 40.29673 20.81069 -8.3809 -50.56121 -12.28172 -0.68493 0.34913
-0.37469 -0.02264 -1.13542 572.29917 -38.00951 -0.36652 35.12076 1.01433 -0.78806 -20.95105 14.20158 -0.83073 17.9683 -19.38369 28.36937 137.62438 -0.12897 31.45408 -22.88279 -30.00422 13.24234 0.29319 51.3817 -49.59099 -22.42101 -2.3195 43.33912 7.45337 -12.76961 -23.8324 -2.0122 -3.61098 -2.26824 42.02974 20.91265 -8.7404 -53.05091 -12.59837 -0.66582 0.36785
-0.38249 -0.02305 -1.13608 572.51293 -37.85165 -0.24276 34.9591 1.11055 -0.27206 -21.04222 14.15332 -0.83073 18.13819 -19.9725 28.24269 137.62547 -1.71361 31.18234 -23.21459 -30.31005 12.63824 1.57859 51.41512 -44.56792 -23.5317 -3.13817 42.2017 7.81584 -12.76609 -22.96267 0.44937 -3.88943 -2.28508 43.87277 21.12606 -9.02793 -55.92477 -12.97514 -0.68499 0.3664
-0.38974 -0.02338 -1.13642 572.70755 -37.76415 -0.09015 34.85764 1.19143 0.2017 -21.13843 13.99914 -0.83073 18.83771 -20.29404 28.32344 137.62194 0.93043 28.12314 -22.65953 -30.60883 12.19493 2.51138 51.40502 -41.65438 -24.01583 -3.65204 41.18855 8.10002 -12.7627 -22.12669 1.94768 -4.05284 -2.29158 45.46459 21.08756 -9.42946 -57.9395 -13.19975 -0.61118 0.41348
-0.39567 -0.0235 -1.136 572.86118 -37.88359 0.14551 34.94379 1.2287 0.54933 -21.23396 13.55121 -0.83073 21.07665 -19.8409 29.00319 137.62765 16.09721 16.80898 -19.49744 -30.9034 12.23047 2.39573 51.26034 -45.01113 -22.6648 -3.25246 40.51635 8.17546 -12.76168 -21.37451 0.5616 -3.87589 -2.26944 46.40996 20.3313 -10.25036 -57.75636 -13.01512 -0.27679 0.59708
-0.40106 -0.02355 -1.13526 573.00072 -38.07475 0.40981 35.09213 1.25155 0.84883 -21.33235 12.99511 -0.83073 23.83049 -19.11946 29.88426 137.62493 35.34432 2.825 -15.4763 -31.18862 12.4294 1.92476 51.06559 -50.47473 -20.69105 -2.54796 39.97224 8.17181 -12.76663 -20.66295 -1.78738 -3.58414 -2.23713 47.09384 19.33402 -11.16843 -56.68376 -12.68589 0.13881 0.82307
-0.40667 -0.02366 -1.13465 573.1527 -38.2312 0.65959 35.20892 1.28347 1.16271 -21.42863 12.48443 -0.83073 26.29069 -18.53312 30.65145 137.6114 52.11898 -9.49721 -11.96226 -31.46924 12.54684 1.63654 50.88399 -54.81138 -19.04873 -2.00763 39.37457 8.20124 -12.78266 -19.94589 -3.61718 -3.35307 -2.20969 47.87189 18.47887 -11.99961 -55.92633 -12.43094 0.51206 1.02683
-0.41236 -0.02365 -1.13413 573.275 -38.39476 0.91606 35.33687 1.30428 1.51187 -21.53027 11.98921 -0.83073 29.00499 -17.89368 31.51482 137.65852 71.494 -23.71422 -7.95635 -31.7872 12.69111 1.26501 50.74501 -59.83011 -17.20808 -1.36487 38.75491 8.24176 -12.7402 -19.17088 -5.77402 -3.08734 -2.18089 48.756 17.48298 -13.0354 -55.54524 -12.12761 0.9368 1.25793
-0.41776 -0.02387 -1.13332 573.45834 -38.56157 1.16486 35.45762 1.34509 1.77424 -21.62098 11.43737 -0.83073 31.31091 -17.30023 32.22449 137.57877 86.44182 -34.63008 -4.76813 -32.025 12.81986 0.98002 50.5063 -63.94534 -15.62932 -0.8603 38.21367 8.24126 -12.81854 -18.52894 -7.48684 -2.86627 -2.15286 49.3537 16.72363 -13.63438 -54.16444 -11.90261 1.2399 1.42463
-0.42251 -0.02474 -1.13181 573.80196 -38.71574 1.39045 35.54037 1.44357 1.81467 -21.67703 10.74173 -0.83073 32.36909 -16.89854 32.46702 137.13846 87.95942 -35.62467 -4.0796 -32.04591 12.86419 1.0219 49.98345 -65.00045 -14.93808 -0.81904 37.84173 8.14077 -13.26129 -18.22665 -7.7155 -2.7941 -2.12642 49.26013 16.68295 -13.31475 -50.30307 -11.83531 1.48059 1.55545
-0.42697 -0.02585 -1.12999 574.21006 -38.87161 1.60631 35.61452 1.56293 1.76796 -21.72229 9.99553 -0.83073 32.99694 -16.55216 32.5465 136.57315 84.91768 -33.23008 -4.23819 -31.98613 12.88814 1.16191 49.36569 -65.08682 -14.52902 -0.92536 37.54733 8.00287 -13.82037 -18.06054 -7.4704 -2.7711 -2.10165 48.88302 16.88748 -12.50214 -45.46138 -11.86629 1.55013 1.59597
-0.43154 -0.02686 -1.12827 574.59687 -39.02964 1.82357 35.69494 1.67352 1.75677 -21.77475 9.28115 -0.83073 33.81802 -16.18071 32.69628 136.07306 84.09798 -32.48632 -3.98832 -31.96182 12.92286 1.2556 48.80409 -65.65368 -13.98204 -0.95874 37.22809 7.88621 -14.30478 -17.84393 -7.45921 -2.72707 -2.07814 48.60977 16.97658 -11.70197 -41.02061 -11.91915 1.49364 1.57192
-0.43619 -0.02783 -1.12672 574.9496 -39.17801 2.05511 35.76788 1.78059 1.76094 -21.81801 8.52468 -0.83073 34.66799 -15.7998 32.86941 135.53684 82.78869 -31.3736 -3.80685 -31.94204 12.95655 1.34479 48.18423 -66.12435 -13.45392 -1.00632 36.86968 7.74908 -14.87916 -17.58028 -7.40305 -2.67356 -2.04589 48.42403 17.076 -11.76731 -36.71219 -11.70103 2.26276 1.97633
-0.44061 -0.02894 -1.12475 575.38842 -39.34569 2.25355 35.8531 1.90008 1.71334 -21.8774 7.84655 -0.83073 35.34758 -15.45504 32.95224 135.04667 81.36169 -30.184 -3.69617 -31.89407 12.98582 1.47064 47.66577 -66.5371 -12.96213 -1.06339 36.60924 7.64648 -15.2965 -17.44684 -7.31524 -2.6529 -2.03221 48.0032 17.2129 -9.95064 -31.93801 -12.05363 1.31784 1.49004
